# xmcd CD database file
#
# Track frame offsets:
#	150
#	16002
#	34098
#	47825
#	65987
#	84519
#	100664
#	116120
#	128809
#	144795
#	161847
#
# Disc length: 2363 seconds
#
# Revision: 0
# Processed by: cddbd v1.5.2PL0 Copyright (c) Steve Scherf et al.
# Submitted via: CDex 1.51
#
DISCID=8f09390b
DTITLE=Capt.Kane and Big Trouble - Where I stand
DYEAR=2007
DGENRE=Country
TTITLE0=My Nashville Mona Lisa
TTITLE1=Need a friend like me
TTITLE2=A lover
TTITLE3=Where I stand
TTITLE4=I don't wanna lose you, Anna
TTITLE5=Never a clue
TTITLE6=U
TTITLE7=Bringin' home a poor man's pay
TTITLE8=Be
TTITLE9=These arms
TTITLE10=Mary go around
EXTD=YEAR: 2007
EXTT0=
EXTT1=
EXTT2=
EXTT3=
EXTT4=
EXTT5=
EXTT6=
EXTT7=
EXTT8=
EXTT9=
EXTT10=
PLAYORDER=
